<svg xmlns="http://www.w3.org/2000/svg" viewBox="0 0 58 46" width="58" height="46"><g fill="#fff"><path d="M36.537 22.156l-11-7a1.005 1.005 0 0 0-1.019-.033A1.002 1.002 0 0 0 24 16v14a1.001 1.001 0 0 0 1.537.844l11-7a1.002 1.002 0 0 0 0-1.688zM26 28.179V17.821L34.137 23 26 28.179z"/><path d="M57 0H1a1 1 0 0 0-1 1v44a1 1 0 0 0 1 1h56a1 1 0 0 0 1-1V1a1 1 0 0 0-1-1zM10 22H2v-9h8v9zm-8 2h8v9H2v-9zm10 10V2h34v42H12V34zm44-12h-8v-9h8v9zm-8 2h8v9h-8v-9zm8-22v9h-8V2h8zM2 2h8v9H2V2zm0 42v-9h8v9H2zm54 0h-8v-9h8v9z"/></g></svg>